<?xml version="1.0" encoding="UTF-8"?>
<svg version="1.1" xmlns="http://www.w3.org/2000/svg" width="512" height="512">
<path d="M0 0 C168.96 0 337.92 0 512 0 C512 168.96 512 337.92 512 512 C343.04 512 174.08 512 0 512 C0 343.04 0 174.08 0 0 Z " fill="#FEFEFE" transform="translate(0,0)"/>
<path d="M0 0 C0.9084668 0.18304688 1.81693359 0.36609375 2.75292969 0.5546875 C36.59474426 7.57212617 66.85484809 22.11001374 92 46 C93.36931218 47.17333723 94.74391787 48.34053966 96.125 49.5 C128.23970877 77.64108354 147.30537017 123.31882933 150.21875 165.14013672 C150.36998667 168.11619087 150.45723977 171.08302836 150.5 174.0625 C150.51869141 174.93600098 150.53738281 175.80950195 150.55664062 176.70947266 C150.47962731 184.33230978 147.97467669 190.0097753 143.8125 196.3125 C138.14152898 201.73142786 132.73606133 203.25356342 124.9375 203.5625 C116.6496068 203.29486082 112.29005226 200.59791952 106.6875 194.75 C101.19897793 187.74020278 100.77773065 180.41536607 100.40405273 171.78369141 C98.98328135 141.92483766 87.15238068 114.76682128 68 92 C67.56042969 91.43796875 67.12085938 90.8759375 66.66796875 90.296875 C48.47411023 67.17424544 17.28958694 53.26351403 -11.0625 48.6875 C-33.31324819 46.17261458 -54.79225551 47.96676141 -76 55 C-76.87914062 55.28488281 -77.75828125 55.56976563 -78.6640625 55.86328125 C-93.27560898 61.16059449 -106.20480253 70.07053082 -118 80 C-118.69351563 80.54140625 -119.38703125 81.0828125 -120.1015625 81.640625 C-125.58080398 85.99399495 -129.68526939 91.53518914 -134 97 C-134.58652344 97.68578125 -135.17304688 98.3715625 -135.77734375 99.078125 C-149.90981761 115.97058787 -157.79964642 137.4591586 -161 159 C-161.18175781 159.95777344 -161.36351562 160.91554687 -161.55078125 161.90234375 C-162.01440745 165.09934874 -162.14845607 168.19632369 -162.23876953 171.4206543 C-162.58372307 182.31867326 -163.87478049 190.66833094 -172.0234375 198.52734375 C-179.03871817 203.75414377 -185.53809418 203.72079244 -194 203 C-199.24315085 201.82778777 -203.24308369 198.75691631 -207 195 C-210.00651594 190.10723043 -212.12451322 185.33102043 -212.1328125 179.53515625 C-212.13506836 178.65899658 -212.13732422 177.78283691 -212.13964844 176.88012695 C-212.13481445 175.95031006 -212.12998047 175.02049316 -212.125 174.0625 C-212.12016602 173.10754639 -212.11533203 172.15259277 -212.11035156 171.16870117 C-211.71006606 124.08311798 -189.39881021 80.40919341 -156.5234375 47.52294922 C-116.80759221 8.56372264 -54.83456908 -11.26839274 0 0 Z " fill="#0E6FFB" transform="translate(287,77)"/>
<path d="M0 0 C0.82628906 0.73476562 1.65257812 1.46953125 2.50390625 2.2265625 C3.72787109 3.23589844 3.72787109 3.23589844 4.9765625 4.265625 C17.38181317 14.76388785 26.18005297 27.85947848 33.50390625 42.2265625 C33.99503906 43.16886719 34.48617187 44.11117187 34.9921875 45.08203125 C38.90695901 53.0933748 41.2437574 61.63187656 43.50390625 70.2265625 C43.75398437 71.14953125 44.0040625 72.0725 44.26171875 73.0234375 C46.73822052 83.97585379 48.11627388 100.0355502 42.890625 110.28515625 C38.18919331 116.86716061 32.42107236 120.64871458 24.50390625 122.2265625 C17.34085149 123.13615676 12.5713309 121.01607859 6.50390625 117.2265625 C3.69140625 114.9765625 3.69140625 114.9765625 1.50390625 112.2265625 C1.05144531 111.67097656 0.59898437 111.11539063 0.1328125 110.54296875 C-3.931271 104.63680774 -3.98375198 98.94866072 -4.19335938 92.02807617 C-4.8410813 71.95907668 -14.35821194 55.07681917 -28.49609375 41.2265625 C-45.81232489 26.0281438 -65.05103613 20.96704657 -87.73583984 22.01953125 C-104.5775069 23.28273076 -119.14830335 30.98664889 -131.49609375 42.2265625 C-132.15222656 42.80148438 -132.80835938 43.37640625 -133.484375 43.96875 C-138.56149158 48.67437024 -142.04051341 54.26837961 -145.49609375 60.2265625 C-145.96144531 61.01933594 -146.42679688 61.81210938 -146.90625 62.62890625 C-152.56689762 73.0327265 -154.6454803 83.90355699 -155.07006836 95.57202148 C-155.45968182 103.75795199 -157.9856883 110.16220095 -163.49609375 116.2265625 C-169.45447352 120.25414766 -175.7521678 123.25848813 -183.05078125 122.7421875 C-190.09278997 121.25729109 -195.62789077 117.83156723 -200.2421875 112.36328125 C-204.05316388 105.86918755 -205.0508551 99.99996102 -204.99609375 92.6015625 C-204.99109863 91.69712402 -204.98610352 90.79268555 -204.98095703 89.86083984 C-204.32505409 63.5749639 -193.16559096 37.32020802 -176.49609375 17.2265625 C-176.06876953 16.70884277 -175.64144531 16.19112305 -175.20117188 15.65771484 C-155.58639951 -7.76471471 -126.39100314 -24.47248608 -95.75561523 -27.62988281 C-60.9865571 -29.83887322 -27.06135334 -23.47199351 0 0 Z " fill="#73ACFC" transform="translate(335.49609375,158.7734375)"/>
<path d="M0 0 C14.06977626 10.93246637 24.13983454 26.24525862 27.16796875 43.96875 C28.07981254 52.83224381 29.02744396 62.70280757 23.65234375 70.3125 C18.65389572 75.8897157 13.47917338 79.44363372 5.9609375 80.359375 C-1.25918113 80.70356267 -6.73658173 80.15012051 -12.7109375 75.90234375 C-19.73342248 69.50063093 -21.63666752 62.17477312 -22.63256836 53.03393555 C-23.3244025 47.53801529 -24.9225144 44.91929626 -28.83203125 40.96875 C-33.88583273 37.12786087 -37.78358017 36.32529522 -44.1171875 36.5859375 C-50.47785757 37.48283774 -54.72329697 40.18899976 -58.75683594 45.20263672 C-60.66302553 48.33373924 -60.87952837 51.63216646 -61.26953125 55.21875 C-62.43731275 63.26943049 -64.27236429 70.21373015 -70.82421875 75.609375 C-72.77964269 76.89331374 -74.72346133 77.9606863 -76.83203125 78.96875 C-77.65703125 79.401875 -78.48203125 79.835 -79.33203125 80.28125 C-86.16540472 82.16042771 -92.53374715 80.96469054 -98.83203125 77.96875 C-104.52135915 74.41149488 -108.89776709 69.43349066 -110.83203125 62.96875 C-113.17419886 44.95069282 -108.19800332 27.72117182 -97.50048828 13.15576172 C-91.94533718 6.208312 -85.49182511 0.52057638 -77.83203125 -4.03125 C-76.68347656 -4.71960938 -76.68347656 -4.71960938 -75.51171875 -5.421875 C-51.57393877 -18.53630232 -21.89104535 -15.70116356 0 0 Z " fill="#A8CBFC" transform="translate(297.83203125,200.03125)"/>
<path d="M0 0 C9.22788415 6.61754995 14.88996109 14.80056272 17 26 C18.31726524 37.85538714 15.1342441 48.30953549 7.9765625 57.8125 C4.74760818 61.38604629 1.23625093 63.75562865 -3 66 C-3.73734375 66.4125 -4.4746875 66.825 -5.234375 67.25 C-14.25047718 71.60677421 -25.50484874 71.49781242 -34.9375 68.4375 C-45.01747421 64.08512733 -50.85062299 57.57309656 -56 48 C-56.36222656 47.34257812 -56.72445312 46.68515625 -57.09765625 46.0078125 C-60.90805554 37.74899357 -60.06579611 26.77852246 -57.09765625 18.37109375 C-52.51092043 8.46309147 -45.32114834 1.37475442 -35.5625 -3.4375 C-24.15559228 -7.53046221 -10.25566924 -6.3217782 0 0 Z " fill="#0E6EFB" transform="translate(277,302)"/>
<path d="M0 0 C12.23656374 9.717992 12.23656374 9.717992 13.54956055 13.65698242 C11.54956055 13.65698242 9.54956055 13.65698242 7.54956055 13.65698242 C7.21956055 14.31698242 6.88956055 14.97698242 6.54956055 15.65698242 C5.97850586 15.11170898 5.40745117 14.56643555 4.8190918 14.00463867 C-21.81219923 -10.76373216 -53.39863487 -21.452214 -89.44262695 -20.66333008 C-97.39264467 -20.37060095 -104.74696913 -19.41702882 -112.45043945 -17.34301758 C-113.78087453 -17.03315838 -115.11161628 -16.72461361 -116.44262695 -16.41723633 C-140.02434722 -10.59854987 -159.52598891 3.73253188 -176.45043945 20.65698242 C-176.45043945 19.33698242 -176.45043945 18.01698242 -176.45043945 16.65698242 C-176.99313477 17.17389648 -177.53583008 17.69081055 -178.0949707 18.22338867 C-178.81040039 18.88209961 -179.52583008 19.54081055 -180.26293945 20.21948242 C-180.97063477 20.88077148 -181.67833008 21.54206055 -182.4074707 22.22338867 C-183.08165039 22.69647461 -183.75583008 23.16956055 -184.45043945 23.65698242 C-185.44043945 23.32698242 -186.43043945 22.99698242 -187.45043945 22.65698242 C-186.05640877 21.09287392 -184.6601244 19.53077392 -183.26293945 17.96948242 C-182.09698242 16.66430664 -182.09698242 16.66430664 -180.9074707 15.33276367 C-159.70121914 -7.76148485 -133.54863582 -22.47261222 -102.45043945 -27.34301758 C-101.38180664 -27.52864258 -100.31317383 -27.71426758 -99.2121582 -27.90551758 C-63.24022973 -32.08916866 -28.4657967 -22.25415169 0 0 Z " fill="#EDF8FD" transform="translate(338.450439453125,152.343017578125)"/>
<path d="M0 0 C0.82628906 0.73476562 1.65257812 1.46953125 2.50390625 2.2265625 C3.72787109 3.23589844 3.72787109 3.23589844 4.9765625 4.265625 C10.24550085 8.72459977 14.68201601 13.620091 19.00390625 18.9765625 C19.52073975 19.61480957 20.03757324 20.25305664 20.57006836 20.91064453 C23.16938729 24.21556095 25.20262705 27.16781071 26.50390625 31.2265625 C22.22175711 27.06853363 18.41373949 22.63591299 14.609375 18.04296875 C12.37791726 15.37150525 10.15547595 12.88579001 7.66015625 10.4453125 C5.50390625 8.2265625 5.50390625 8.2265625 5.50390625 6.2265625 C4.63572266 5.82824219 4.63572266 5.82824219 3.75 5.421875 C1.4231677 4.18359555 -0.40272299 2.77771303 -2.43359375 1.1015625 C-24.53951232 -16.30865442 -49.62445241 -25.20132657 -77.62109375 -25.2109375 C-78.31331024 -25.21366669 -79.00552673 -25.21639587 -79.71871948 -25.21920776 C-92.56915115 -25.22676803 -104.59564445 -23.37565421 -117.09033203 -20.32470703 C-120.21441255 -19.60883796 -123.31563798 -19.15720956 -126.49609375 -18.7734375 C-123.6932723 -20.64198513 -121.8593 -21.37182689 -118.671875 -22.24609375 C-117.72505859 -22.50583984 -116.77824219 -22.76558594 -115.80273438 -23.03320312 C-114.81466797 -23.29810547 -113.82660156 -23.56300781 -112.80859375 -23.8359375 C-111.83986328 -24.10470703 -110.87113281 -24.37347656 -109.87304688 -24.65039062 C-72.56346721 -34.76610492 -29.30578744 -25.41873068 0 0 Z " fill="#84ADE4" transform="translate(335.49609375,158.7734375)"/>
<path d="M0 0 C17.69514146 22.10530532 20.83946097 57.9274959 20.29052734 85.05249023 C20 87 20 87 18 90 C17.97494385 89.19256348 17.9498877 88.38512695 17.92407227 87.55322266 C17.80834513 83.91031083 17.68551365 80.26767274 17.5625 76.625 C17.52318359 75.35398437 17.48386719 74.08296875 17.44335938 72.7734375 C17.40146484 71.56171875 17.35957031 70.35 17.31640625 69.1015625 C17.27974854 67.98088379 17.24309082 66.86020508 17.20532227 65.70556641 C17.17403987 63.03287229 17.17403987 63.03287229 16 61 C15.84249489 59.39869808 15.72375816 57.7934958 15.625 56.1875 C15.17041913 50.5462259 13.99809173 45.2316379 12.62109375 39.75 C12 37 12 37 12 34 C11.34 34 10.68 34 10 34 C9.67 30.04 9.34 26.08 9 22 C8.34 22 7.68 22 7 22 C6.82984375 21.3709375 6.6596875 20.741875 6.484375 20.09375 C5.03848229 14.98698001 3.39438812 10.40959707 0.76953125 5.7890625 C0 4 0 4 0 0 Z " fill="#2F79DC" transform="translate(417,174)"/>
<path d="M0 0 C2.32138411 0.72349065 4.65246953 1.3642105 7 2 C7 2.66 7 3.32 7 4 C8.175625 4.4021875 8.175625 4.4021875 9.375 4.8125 C12 6 12 6 14 9 C10.20770819 7.54035177 6.58965175 5.84105717 2.9375 4.0625 C-15.21118281 -4.19424224 -36.18299003 -4.8241946 -55 2 C-63.78666097 5.57769107 -70.884348 10.06529117 -77.98828125 16.27734375 C-80 18 -80 18 -81 18 C-81 16.35 -81 14.7 -81 13 C-79.35 13 -77.7 13 -76 13 C-76 12.01 -76 11.02 -76 10 C-73.0645754 8.5322877 -70.12890975 7.06511206 -67.19140625 5.6015625 C-65.29690188 4.65083203 -63.4069358 3.69081961 -61.52734375 2.7109375 C-56.3102518 0 -56.3102518 0 -53 0 C-53 -0.66 -53 -1.32 -53 -2 C-38.53456564 -9.23271718 -14.09037991 -5.73167997 0 0 Z " fill="#84ADE5" transform="translate(284,183)"/>
<path d="M0 0 C0.66 0 1.32 0 2 0 C3.02028865 1.31787285 4.01971384 2.65210653 5 4 C5.66 4.33 6.32 4.66 7 5 C7.20564075 6.61085257 7.40723182 8.22231208 7.58984375 9.8359375 C8.23479547 13.23882561 9.61136536 16.29738567 10.96484375 19.47265625 C13.93231232 26.71775877 14.57945191 33.28457816 15.03515625 41.03710938 C15.46555881 46.65264464 16.55727844 51.05833479 19.06689453 56.11401367 C20 58 20 58 21 61 C22.69769234 62.10168984 22.69769234 62.10168984 25 63 C26.546875 63.804375 26.546875 63.804375 28.125 64.625 C35.50659285 67.73220895 43.53575985 66.01931135 51 64 C47.13730618 68.23388362 42.76181166 68.79782489 37.1875 69.4375 C30.70700833 69.26098855 25.11919376 65.69535501 20.1875 61.75 C19.465625 60.8425 18.74375 59.935 18 59 C17.54753906 58.44441406 17.09507812 57.88882813 16.62890625 57.31640625 C12.56482275 51.41024524 12.51234177 45.72209822 12.30273438 38.80151367 C11.87583819 25.57457326 7.68700775 12.81875164 0 2 C0 1.34 0 0.68 0 0 Z " fill="#8AB1E4" transform="translate(319,212)"/>
<path d="M0 0 C0.66 0 1.32 0 2 0 C2 0.66 2 1.32 2 2 C2.66 2 3.32 2 4 2 C4.99 3.98 5.98 5.96 7 8 C8.32 7.67 9.64 7.34 11 7 C11.93423645 10.01031744 12.04449911 10.86650268 11 14 C11.87911925 16.51494483 11.87911925 16.51494483 13.25 19.1875 C19 31.28011838 19 31.28011838 19 36 C19.66 36 20.32 36 21 36 C22.69988236 39.73562858 23.28958694 42.85022629 23.5 46.9375 C23.66658887 50.16515928 23.87447462 52.67874801 25.0546875 55.69921875 C26.42523932 60.48482325 25.95888602 64.94684232 25.625 69.875 C25.56828125 70.84953125 25.5115625 71.8240625 25.453125 72.828125 C25.31245128 75.2195783 25.1611264 77.60985226 25 80 C24.67 80 24.34 80 24 80 C23.96261719 78.97003906 23.92523438 77.94007813 23.88671875 76.87890625 C22.70621559 49.53274506 15.34346112 26.53390985 1.25 3.16015625 C0 1 0 1 0 0 Z " fill="#2876DD" transform="translate(364,179)"/>
<path d="M0 0 C-1.00313232 -0.07001221 -2.00626465 -0.14002441 -3.03979492 -0.2121582 C-13.31805883 -0.89369419 -23.5584938 -1.18633223 -33.85864258 -1.18530273 C-36.32845703 -1.18751429 -38.79784045 -1.2058457 -41.26757812 -1.22460938 C-49.96100989 -1.25510884 -58.51266852 -1.1717377 -67 1 C-67.33 1.33 -67.66 1.66 -68 2 C-70.52596259 2.23653523 -73.03107207 2.42173692 -75.5625 2.5625 C-76.62887695 2.62727539 -76.62887695 2.62727539 -77.71679688 2.69335938 C-79.47761912 2.79971777 -81.2387832 2.90038846 -83 3 C-79.0307089 -0.9692911 -72.38746416 -1.02058286 -67 -2 C-65.87980469 -2.21011719 -64.75960937 -2.42023438 -63.60546875 -2.63671875 C-45.90435394 -5.38849073 -16.24399922 -8.54901578 0 0 Z " fill="#2C75D6" transform="translate(291,79)"/>
<path d="M0 0 C0.94673248 3.35425043 0.91590992 5.00337333 -0.25 8.3125 C-3.77251934 19.54560314 -5.33327819 30.12974305 -5.5625 41.875 C-5.60141357 42.93275635 -5.64032715 43.9905127 -5.68041992 45.08032227 C-5.70705466 52.5942772 -4.10908805 57.41446771 1 63 C7.02068327 67.85170389 13.37138285 69.7498814 21 70 C21 70.33 21 70.66 21 71 C13.1746407 71.74923653 7.52528435 70.46288878 1 66 C-4.27177194 61.4274315 -7.34094538 55.68217085 -8.31811523 48.73999023 C-8.47660787 46.27629034 -8.51758196 43.84374213 -8.5 41.375 C-8.49718018 40.47563721 -8.49436035 39.57627441 -8.49145508 38.6496582 C-8.18290232 25.3750073 -4.87390895 12.30626276 0 0 Z " fill="#8BB1E6" transform="translate(139,210)"/>
<path d="M0 0 C0.33 0.99 0.66 1.98 1 3 C0.01 3.33 -0.98 3.66 -2 4 C-3.04840708 5.80358604 -3.04840708 5.80358604 -4 8 C-5.06934563 9.67567563 -6.15420525 11.34149984 -7.25 13 C-14.72862338 24.67165908 -18.18247337 33.60951429 -18.3125 47.375 C-18.34150391 48.39078125 -18.37050781 49.4065625 -18.40039062 50.453125 C-18.45550652 56.98223905 -17.59222541 60.5714231 -14 66 C-14.495 66.99 -14.495 66.99 -15 68 C-21.80493361 59.93939411 -21.96420672 52.18482655 -21.19921875 42.14648438 C-19.68753591 25.8588428 -11.70900406 11.26611029 0 0 Z " fill="#B5CDEE" transform="translate(208,205)"/>
<path d="M0 0 C2.09632182 6.28896547 0.22919758 13.93708145 -2.19140625 19.96875 C-5.40863417 25.78956563 -9.02851916 29.14515843 -15 32 C-15.825 32.433125 -16.65 32.86625 -17.5 33.3125 C-24.2743547 35.17544754 -30.76003385 34.0369417 -37 31 C-38.97411149 29.45743847 -40.3791286 27.93458845 -42 26 C-39.0280615 27.12451727 -36.66559313 28.22293791 -34 30 C-27.67981179 31.85887888 -20.96302981 31.80613168 -15 29 C-14.01 29 -13.02 29 -12 29 C-12 28.34 -12 27.68 -12 27 C-10.35570171 25.31126121 -8.68615782 23.64694485 -7 22 C-3.64515382 18.45273122 -3.10941 14.54017263 -2.375 9.875 C-1.09714854 2.19429708 -1.09714854 2.19429708 0 0 Z " fill="#B5CEED" transform="translate(236,247)"/>
<path d="M0 0 C2.09746441 0.01068895 4.19406592 0.00006701 6.29150391 -0.01269531 C14.29235343 -0.02164982 22.48868976 0.01904034 30.23291016 2.26074219 C30.72791016 3.25074219 30.72791016 3.25074219 31.23291016 4.26074219 C30.40355957 4.19000488 29.57420898 4.11926758 28.71972656 4.04638672 C19.66498018 3.32971532 10.6925552 3.10886454 1.60791016 3.13574219 C0.29306641 3.131875 -1.02177734 3.12800781 -2.37646484 3.12402344 C-10.22479814 3.13182496 -17.95918704 3.45782129 -25.76708984 4.26074219 C-19.81380646 -1.6925412 -7.84657818 -0.04745546 0 0 Z " fill="#D1EEFD" transform="translate(253.76708984375,72.7392578125)"/>
<path d="M0 0 C0.66 0 1.32 0 2 0 C2 0.66 2 1.32 2 2 C2.515625 2.2475 3.03125 2.495 3.5625 2.75 C5.51250352 3.75000181 7.42085487 4.83106606 9.3125 5.9375 C21.20177868 12.63462533 31.62753412 11.20783563 45 10 C40.70398471 14.29601529 35.11422204 14.31817608 29.3125 14.375 C18.16033536 14.31489775 9.02106002 11.03971365 1 3 C0.67 2.01 0.34 1.02 0 0 Z " fill="#2D76DA" transform="translate(227,358)"/>
<path d="M0 0 C0.33 0 0.66 0 1 0 C1.11459026 7.41017023 0.91160286 14.64206267 0 22 C-0.66 22 -1.32 22 -2 22 C-2 30.91 -2 39.82 -2 49 C-4.09979115 45.85031328 -4.24918897 45.12393247 -4.23046875 41.53515625 C-4.22942139 40.65859375 -4.22837402 39.78203125 -4.22729492 38.87890625 C-4.2141626 37.94949219 -4.20103027 37.02007812 -4.1875 36.0625 C-4.17887939 35.11117187 -4.17025879 34.15984375 -4.16137695 33.1796875 C-4.01527782 21.68001895 -2.86434002 11.16912462 0 0 Z " fill="#2D76D4" transform="translate(79,215)"/>
<path d="M0 0 C8.19487546 4.09743773 12.66391404 11.73288659 16 20 C18.57852988 30.26516009 16.84429246 39.32062078 13 49 C12 46 12 46 12.9140625 42.84375 C14.11808256 38.58203871 14.36713892 34.89434573 14.375 30.5 C14.39949219 29.77941406 14.42398437 29.05882812 14.44921875 28.31640625 C14.47945155 22.74349319 13.03600431 19.65250278 10 15 C9.30686092 13.34416775 8.63525576 11.67889021 8 10 C6.90915987 7.27289968 6.43742053 6.2573062 3.875 4.75 C3.25625 4.5025 2.6375 4.255 2 4 C2 3.34 2 2.68 2 2 C1.34 2 0.68 2 0 2 C0 1.34 0 0.68 0 0 Z " fill="#367AD9" transform="translate(277,303)"/>
<path d="M0 0 C0.66 0 1.32 0 2 0 C3.49495015 9.31674288 4.21287987 18.4387534 4.25 27.875 C4.25902344 28.8438916 4.26804687 29.8127832 4.27734375 30.81103516 C4.27347656 31.71644043 4.26960938 32.6218457 4.265625 33.5546875 C4.26336914 34.36405762 4.26111328 35.17342773 4.25878906 36.00732422 C4 38 4 38 2 40 C1.28591666 41.98356483 0.61382258 43.98315437 0 46 C-0.66 46 -1.32 46 -2 46 C-2.33 46.99 -2.66 47.98 -3 49 C-3.66 48.67 -4.32 48.34 -5 48 C-4.38125 47.13375 -3.7625 46.2675 -3.125 45.375 C1.04023327 38.75962951 1.29146315 33.10620373 1.1875 25.5 C1.18105469 24.52981934 1.17460937 23.55963867 1.16796875 22.56005859 C1.0877928 15.00973933 0.71849609 7.51854838 0 0 Z " fill="#DCF4FE" transform="translate(435,225)"/>
<path d="M0 0 C1.88358216 1.58138106 3.3993595 3.12338701 5 5 C1.98184013 3.93476711 -0.34482774 2.76293093 -3 0.9375 C-5.8814375 -0.92342839 -7.69843718 -1.4340178 -11 -2 C-11.495 -2.99 -11.495 -2.99 -12 -4 C-14.20112676 -4.77258092 -16.43812041 -5.44433194 -18.6875 -6.0625 C-19.90824219 -6.40410156 -21.12898438 -6.74570313 -22.38671875 -7.09765625 C-29.6676097 -8.91591118 -36.40049219 -9.12233288 -43.875 -9.0625 C-44.94492188 -9.05798828 -46.01484375 -9.05347656 -47.1171875 -9.04882812 C-49.74484986 -9.03709749 -52.37239538 -9.02068228 -55 -9 C-55 -9.33 -55 -9.66 -55 -10 C-36.33638383 -14.08550606 -15.85058047 -10.83170258 0 0 Z " fill="#B4CBED" transform="translate(295,198)"/>
<path d="M0 0 C0.98198042 3.46814522 0.7528084 5.46836866 0 9 C-0.09055366 10.87345465 -0.17932602 12.74714989 -0.23950195 14.62182617 C-0.57567156 24.13463904 -1.94814187 32.94814187 -9 40 C-9.66 40 -10.32 40 -11 40 C-9.88697283 35.08413001 -9.15873236 32.81720579 -5 30 C-4.1420081 27.3492473 -3.80198891 24.71877861 -3.53515625 21.953125 C-3.45716797 21.19 -3.37917969 20.426875 -3.29882812 19.640625 C-3.14284335 18.06272947 -2.9891497 16.48460555 -2.83789062 14.90625 C-2.3083786 9.77471879 -1.35832948 4.97864696 0 0 Z " fill="#82ADE6" transform="translate(181,235)"/>
<path d="M0 0 C0 4.24645065 -1.81750806 6.38524772 -4 10 C-4.66 10 -5.32 10 -6 10 C-6.144375 11.134375 -6.28875 12.26875 -6.4375 13.4375 C-7 17 -7 17 -8 18 C-8.08700342 19.63472882 -8.10701063 21.27314055 -8.09765625 22.91015625 C-8.09443359 23.89951172 -8.09121094 24.88886719 -8.08789062 25.90820312 C-8.07951172 26.94912109 -8.07113281 27.99003906 -8.0625 29.0625 C-8.05798828 30.10728516 -8.05347656 31.15207031 -8.04882812 32.22851562 C-8.03699913 34.8190666 -8.02051689 37.40950559 -8 40 C-11.45316005 36.54683995 -11.18845058 33.11012689 -11.25 28.4375 C-11.12344224 17.24289051 -8.11023486 8.11023486 0 0 Z " fill="#3D7FD8" transform="translate(229,307)"/>
<path d="M0 0 C1.186968 3.56090399 0.75395055 5.37926221 0.125 9.0625 C-0.90187109 15.64132078 -1.36619207 22.12784934 -1.56982422 28.78149414 C-1.74430298 33.19718677 -2.3646245 36.83243017 -4 41 C-4.33 41 -4.66 41 -5 41 C-4.84402344 40.13632812 -4.68804687 39.27265625 -4.52734375 38.3828125 C-3.47255676 31.01598737 -3.63794974 23.47818534 -3.48242188 16.05078125 C-3.44826172 14.83519531 -3.41410156 13.61960938 -3.37890625 12.3671875 C-3.3538501 11.26487793 -3.32879395 10.16256836 -3.30297852 9.02685547 C-2.9735584 5.73583964 -2.42558307 2.42558307 0 0 Z " fill="#367AD7" transform="translate(126,225)"/>
<path d="M0 0 C5.57249836 7.01781493 8.36359612 15.71489902 11.375 24.0625 C11.64997314 24.81297607 11.92494629 25.56345215 12.20825195 26.33666992 C12.86630966 28.20411944 13.44051306 30.10068907 14 32 C13.67 32.66 13.34 33.32 13 34 C10.57869669 31.57869669 10.47159496 30.19888623 9.875 26.875 C9.70742188 25.96492188 9.53984375 25.05484375 9.3671875 24.1171875 C9.24601562 23.41851562 9.12484375 22.71984375 9 22 C8.34 22 7.68 22 7 22 C6.82984375 21.3709375 6.6596875 20.741875 6.484375 20.09375 C5.03848229 14.98698001 3.39438812 10.40959707 0.76953125 5.7890625 C0 4 0 4 0 0 Z " fill="#377AD9" transform="translate(417,174)"/>
<path d="M0 0 C1.918125 0.185625 1.918125 0.185625 3.875 0.375 C9.94207259 1.11862952 15.59629781 3.1886144 21 6 C17.12175583 7.4814704 14.54086984 6.44528969 10.6875 5.1875 C3.16371859 2.90109324 -4.18493564 1.83185559 -12 1 C-12 0.67 -12 0.34 -12 0 C-7.70146411 -1.17232797 -4.36490637 -0.73981464 0 0 Z " fill="#3B7FDB" transform="translate(280,124)"/>
<path d="M0 0 C0.66 0.33 1.32 0.66 2 1 C1.01 2.485 1.01 2.485 0 4 C-0.99 4 -1.98 4 -3 4 C-3.3403125 4.86625 -3.3403125 4.86625 -3.6875 5.75 C-5.95034275 9.62915899 -9.76745642 12.4981297 -14 14 C-15.34353414 13.71050922 -16.67965718 13.38155437 -18 13 C-15.5630847 11.20753339 -13.12549489 9.41599716 -10.6875 7.625 C-9.99720703 7.11710937 -9.30691406 6.60921875 -8.59570312 6.0859375 C-7.92861328 5.59609375 -7.26152344 5.10625 -6.57421875 4.6015625 C-5.96151123 4.15119629 -5.34880371 3.70083008 -4.7175293 3.23681641 C-3.16996423 2.12239357 -1.58677377 1.05784918 0 0 Z " fill="#2974DE" transform="translate(158,103)"/>
<path d="M0 0 C3.74331455 6.65114299 2.8280772 15.59640069 2 23 C0.23412864 28.80840333 -2.907367 32.6534126 -8 36 C-7.625 34.0625 -7.625 34.0625 -7 32 C-6.34 31.67 -5.68 31.34 -5 31 C-4.67 30.01 -4.34 29.02 -4 28 C-3.34 28 -2.68 28 -2 28 C-1.7834375 27.1028125 -1.7834375 27.1028125 -1.5625 26.1875 C-1.1127561 24.43849596 -0.57107659 22.71322977 0 21 C0.08143855 19.37280518 0.1075302 17.74248281 0.09765625 16.11328125 C0.09443359 15.17548828 0.09121094 14.23769531 0.08789062 13.27148438 C0.07951172 12.29501953 0.07113281 11.31855469 0.0625 10.3125 C0.05798828 9.32443359 0.05347656 8.33636719 0.04882812 7.31835938 C0.03704303 4.87884526 0.02059011 2.43945311 0 0 Z " fill="#B6CEED" transform="translate(323,240)"/>
<path d="M0 0 C8.83605287 5.38783712 19.7015797 15.1047391 23 25 C22.34 25 21.68 25 21 25 C21 24.34 21 23.68 21 23 C20.34 23 19.68 23 19 23 C18.10377098 21.62118612 17.21135897 20.23977385 16.3359375 18.84765625 C14.18552236 15.87354408 11.52209383 13.44409568 8.89453125 10.89453125 C6.73612936 8.73612936 4.89643154 6.38809898 3 4 C2.01 3.34 1.02 2.68 0 2 C0 1.34 0 0.68 0 0 Z " fill="#357AD6" transform="translate(377,122)"/>
<path d="M0 0 C0.66 0 1.32 0 2 0 C5.27594506 11.34550463 5.02999257 21.35984306 4 33 C3.67 33 3.34 33 3 33 C2.95101563 31.9584375 2.90203125 30.916875 2.8515625 29.84375 C2.34172631 19.82011148 1.37801407 9.94043159 0 0 Z " fill="#367CDC" transform="translate(385,226)"/>
<path d="M0 0 C0.33 0 0.66 0 1 0 C1.11459026 7.41017023 0.91160286 14.64206267 0 22 C-0.99 21.67 -1.98 21.34 -3 21 C-3.43230491 13.65081658 -1.81774185 7.09784913 0 0 Z " fill="#327BE0" transform="translate(79,215)"/>
<path d="M0 0 C4.98275104 5.7301637 8.48529199 14.59633373 10 22 C9.57421875 24.26171875 9.57421875 24.26171875 9 26 C0.93178411 8.619003 0.93178411 8.619003 0 0 Z " fill="#87B0E7" transform="translate(367,199)"/>
<path d="M0 0 C0.33 0 0.66 0 1 0 C0.66413718 5.96446051 0.08899281 9.85167865 -3 15 C-3.55108481 18.32195982 -3.81077624 21.63964697 -4 25 C-4.99 25.33 -5.98 25.66 -7 26 C-6.36160636 20.52287275 -5.09995944 15.45822353 -3.5 10.1875 C-3.27441406 9.42501953 -3.04882812 8.66253906 -2.81640625 7.87695312 C-1.14933036 2.29866071 -1.14933036 2.29866071 0 0 Z " fill="#C5E4FA" transform="translate(133,206)"/>
<path d="M0 0 C0.33 0.99 0.66 1.98 1 3 C-0.66666667 4.66666667 -2.33333333 6.33333333 -4 8 C-4.804375 8.86625 -4.804375 8.86625 -5.625 9.75 C-7 11 -7 11 -10 12 C-11.38576923 13.62332967 -12.72641268 15.28724465 -14 17 C-14.66 16.67 -15.32 16.34 -16 16 C-14.08743854 13.89197235 -12.17019745 11.78855326 -10.25 9.6875 C-9.71117187 9.09259766 -9.17234375 8.49769531 -8.6171875 7.88476562 C-5.91859521 4.93935086 -3.3371486 2.24366544 0 0 Z " fill="#85AEE7" transform="translate(175,160)"/>
<path d="M0 0 C0.33 0.99 0.66 1.98 1 3 C-1.93042737 8.75450858 -6.15380577 12.46297231 -12 15 C-12.99 14.67 -13.98 14.34 -15 14 C-13.68 13.67 -12.36 13.34 -11 13 C-11 12.34 -11 11.68 -11 11 C-10.34 11 -9.68 11 -9 11 C-8.67 10.01 -8.34 9.02 -8 8 C-7.34 8.33 -6.68 8.66 -6 9 C-5.731875 8.360625 -5.46375 7.72125 -5.1875 7.0625 C-4 5 -4 5 -1 4 C-0.26676204 1.98491642 -0.26676204 1.98491642 0 0 Z " fill="#2B77DA" transform="translate(434,264)"/>
<path d="M0 0 C-4.92261787 2.86605751 -9.55430068 5.26727749 -15 7 C-16.299375 7.8353125 -16.299375 7.8353125 -17.625 8.6875 C-20 10 -20 10 -22.1484375 9.58203125 C-23.06496094 9.29392578 -23.06496094 9.29392578 -24 9 C-3.26213592 -1.63106796 -3.26213592 -1.63106796 0 0 Z " fill="#CBE9FC" transform="translate(216,131)"/>
<path d="M0 0 C2 2 2 2 3.375 4.8125 C5.54471631 9.06848199 7.35880805 12.21670384 11.75 14.3125 C12.4925 14.539375 13.235 14.76625 14 15 C14 15.66 14 16.32 14 17 C14.66 17 15.32 17 16 17 C16 17.66 16 18.32 16 19 C10.08245796 17.70102736 6.68191037 14.62098347 3 10 C1.0908769 6.71281269 0 3.85833841 0 0 Z " fill="#2C75D8" transform="translate(389,260)"/>
<path d="M0 0 C0.33 0.66 0.66 1.32 1 2 C3.52733235 2.65555119 3.52733235 2.65555119 6 3 C6 3.66 6 4.32 6 5 C2 3.66666667 -2 2.33333333 -6 1 C-8.56634861 0.77281504 -11.11678107 0.58391816 -13.6875 0.4375 C-14.38939453 0.39431641 -15.09128906 0.35113281 -15.81445312 0.30664062 C-17.54275206 0.2008264 -19.2713511 0.09993419 -21 0 C-21 -0.33 -21 -0.66 -21 -1 C-6.65378759 -2.78530643 -6.65378759 -2.78530643 0 0 Z " fill="#B3D5F8" transform="translate(271,297)"/>
<path d="M0 0 C4 0 4 0 5.94140625 1.75390625 C6.62074219 2.49511719 7.30007813 3.23632812 8 4 C9.62948947 5.33273691 11.27611457 6.64474246 12.9375 7.9375 C16.53917408 10.78372693 19.86260369 13.65344394 23 17 C18.82087727 17 17.84424461 15.24273197 14.875 12.375 C10.71506113 8.43154276 6.46114674 5.0749296 1.58203125 2.05859375 C1.05996094 1.70925781 0.53789062 1.35992187 0 1 C0 0.67 0 0.34 0 0 Z " fill="#387DD4" transform="translate(327,144)"/>
<path d="M0 0 C-0.55945313 0.20753906 -1.11890625 0.41507813 -1.6953125 0.62890625 C-9.39361163 3.58693437 -16.67143166 7.24067676 -24 11 C-24 10.34 -24 9.68 -24 9 C-23.34 9 -22.68 9 -22 9 C-22 8.34 -22 7.68 -22 7 C-19.93824636 6.040062 -17.87556531 5.08211576 -15.8125 4.125 C-14.66394531 3.59132812 -13.51539063 3.05765625 -12.33203125 2.5078125 C-11.23246094 2.01023438 -10.13289062 1.51265625 -9 1 C-7.67548828 0.37738281 -7.67548828 0.37738281 -6.32421875 -0.2578125 C-3.73950837 -1.0831822 -2.511094 -0.93003481 0 0 Z " fill="#2E75D6" transform="translate(211,132)"/>
<path d="M0 0 C-2.56268974 2.56268974 -4.79390177 3.05976424 -8.25 4.125 C-9.36890625 4.47820312 -10.4878125 4.83140625 -11.640625 5.1953125 C-14.90273283 5.97670112 -17.66207892 6.15172369 -21 6 C-17.75881841 3.83921227 -14.71790415 2.65115273 -11.0625 1.3125 C-9.83660156 0.85488281 -8.61070312 0.39726563 -7.34765625 -0.07421875 C-4.22378307 -0.93811367 -2.92750001 -1.21062031 0 0 Z " fill="#347ADA" transform="translate(207,83)"/>
<path d="M0 0 C0.66 0.33 1.32 0.66 2 1 C0.625 2.5 0.625 2.5 -1 4 C-1.66 4 -2.32 4 -3 4 C-3.33 4.99 -3.66 5.98 -4 7 C-8.45714286 11 -8.45714286 11 -11 11 C-11 11.66 -11 12.32 -11 13 C-13 14.625 -13 14.625 -15 16 C-15.66 15.67 -16.32 15.34 -17 15 C-11.67248457 9.45050476 -6.32532275 4.39497902 0 0 Z " fill="#E7F7FE" transform="translate(215,191)"/>
<path d="M0 0 C0.66 0 1.32 0 2 0 C0.39369175 4.24292532 -1.5768162 8.27025107 -3.625 12.3125 C-4.11226563 13.28026367 -4.11226563 13.28026367 -4.609375 14.26757812 C-5.40441956 15.84597541 -6.20195634 17.42311694 -7 19 C-7.7109375 17.44921875 -7.7109375 17.44921875 -8 15 C-6.96865675 12.47925882 -5.90461778 10.19835223 -4.625 7.8125 C-4.13 6.85053711 -4.13 6.85053711 -3.625 5.86914062 C-1.19836882 1.19836882 -1.19836882 1.19836882 0 0 Z " fill="#D6EFFD" transform="translate(98,163)"/>
<path d="M0 0 C0.66 0.99 1.32 1.98 2 3 C-2.57894737 10.10526316 -2.57894737 10.10526316 -5 12 C-5.99 12 -6.98 12 -8 12 C-6.59023295 8.96147295 -4.91129772 6.4060405 -2.875 3.75 C-2.06675781 2.69039062 -2.06675781 2.69039062 -1.2421875 1.609375 C-0.83226563 1.07828125 -0.42234375 0.5471875 0 0 Z " fill="#2875E3" transform="translate(117,139)"/>
<path d="M0 0 C1.98 0.99 1.98 0.99 4 2 C4 2.66 4 3.32 4 4 C4.99 4.33 5.98 4.66 7 5 C10.95835216 9.56732941 10.70744305 15.23965452 11 21 C10.67 21 10.34 21 10 21 C9.86464844 20.40574219 9.72929687 19.81148438 9.58984375 19.19921875 C7.68629139 11.86997225 4.2966756 6.19192154 0 0 Z " fill="#DAF3FE" transform="translate(283,307)"/>
<path d="M0 0 C2 0 2 0 4.125 1.875 C6 4 6 4 6 6 C8.475 6.99 8.475 6.99 11 8 C11 8.66 11 9.32 11 10 C11.99 10 12.98 10 14 10 C14.33 11.65 14.66 13.3 15 15 C14.030625 14.154375 13.06125 13.30875 12.0625 12.4375 C7.82847752 8.80214054 3.42830778 5.39403181 -1 2 C-0.67 1.34 -0.34 0.68 0 0 Z " fill="#D6EFFD" transform="translate(365,109)"/>
<path d="M0 0 C-4.15338192 3.00817758 -7.8190226 3.52025435 -12.8125 3.6875 C-13.50537109 3.72166016 -14.19824219 3.75582031 -14.91210938 3.79101562 C-16.60752849 3.87286344 -18.30373458 3.93812365 -20 4 C-17.27129596 1.27129596 -14.8791803 1.11250724 -11.125 0.3125 C-9.27261719 -0.09548828 -9.27261719 -0.09548828 -7.3828125 -0.51171875 C-4.39529663 -0.94294217 -2.77229336 -1.03786862 0 0 Z " fill="#347ADB" transform="translate(228,78)"/>
<path d="M0 0 C0.91447302 3.08634644 1.32154416 5.78455841 1 9 C-0.375 11.3125 -0.375 11.3125 -2 13 C-2.66 13 -3.32 13 -4 13 C-4 14.65 -4 16.3 -4 18 C-4.66 17.67 -5.32 17.34 -6 17 C-4.33846988 11.14340094 -2.52958084 5.5409866 0 0 Z " fill="#347BDD" transform="translate(90,182)"/>
<path d="M0 0 C0 4.60484049 -2.81548199 6.67519912 -5.8203125 9.96875 C-8.37318423 12.34777025 -10.56116935 13.39820464 -14 14 C-9.72706118 8.76564995 -5.18419194 4.32893185 0 0 Z " fill="#2E76D8" transform="translate(139,117)"/>
<path d="M0 0 C0.99 0.33 1.98 0.66 3 1 C2.38511719 1.88751953 2.38511719 1.88751953 1.7578125 2.79296875 C0.94957031 3.97826172 0.94957031 3.97826172 0.125 5.1875 C-0.40867188 5.96480469 -0.94234375 6.74210937 -1.4921875 7.54296875 C-2.98015439 9.9676609 -4.02428078 12.3333499 -5 15 C-5.33 15 -5.66 15 -6 15 C-5.53397428 9.29118493 -4.22127725 4.22127725 0 0 Z " fill="#DEF5FE" transform="translate(225,308)"/>
<path d="M0 0 C0.66 0.33 1.32 0.66 2 1 C0.7934375 1.8971875 0.7934375 1.8971875 -0.4375 2.8125 C-3.22327984 4.80947276 -3.22327984 4.80947276 -4 8 C-4.99 8.66 -5.98 9.32 -7 10 C-7.79798218 12.41607417 -7.79798218 12.41607417 -8.1875 15.125 C-8.34605469 16.03507812 -8.50460938 16.94515625 -8.66796875 17.8828125 C-8.77753906 18.58148438 -8.88710937 19.28015625 -9 20 C-9.33 20 -9.66 20 -10 20 C-10.43213772 13.84203749 -9.91482286 9.88759702 -6 5 C-4.08422945 3.149646 -2.13855101 1.60391326 0 0 Z " fill="#E8F6FD" transform="translate(246,238)"/>
<path d="M0 0 C0.66 0.33 1.32 0.66 2 1 C1.60167969 1.71285156 1.20335937 2.42570313 0.79296875 3.16015625 C-2.08121637 8.35606755 -4.79421218 13.48553046 -7 19 C-7.97099482 16.37831399 -8.06599958 15.20307562 -7.1875 12.5 C-6.5996875 11.2625 -6.5996875 11.2625 -6 10 C-5.566875 9.0409375 -5.566875 9.0409375 -5.125 8.0625 C-3.59254622 5.2530014 -1.80172964 2.6425368 0 0 Z " fill="#83ADE4" transform="translate(191,213)"/>
<path d="M0 0 C0.99 0.33 1.98 0.66 3 1 C-1.455 6.94 -1.455 6.94 -6 13 C-6.33 11.68 -6.66 10.36 -7 9 C-5.8203125 7.1484375 -5.8203125 7.1484375 -4.125 5.375 C-1.77069571 2.89368731 -1.77069571 2.89368731 0 0 Z " fill="#DDF4FE" transform="translate(113,140)"/>
<path d="M0 0 C1.65322266 0.01740234 1.65322266 0.01740234 3.33984375 0.03515625 C4.44457031 0.04417969 5.54929688 0.05320312 6.6875 0.0625 C7.54214844 0.07410156 8.39679688 0.08570312 9.27734375 0.09765625 C9.27734375 0.42765625 9.27734375 0.75765625 9.27734375 1.09765625 C8.22675781 1.29101562 7.17617187 1.484375 6.09375 1.68359375 C-1.20884693 3.03544354 -8.48675945 4.41789449 -15.72265625 6.09765625 C-13.37812791 3.75312791 -11.82540677 3.40503085 -8.66015625 2.53515625 C-5.53787431 1.67059325 -3.07909806 0.11044111 0 0 Z " fill="#3378D8" transform="translate(226.72265625,124.90234375)"/>
<path d="M0 0 C0.66 0 1.32 0 2 0 C1.81824219 0.59425781 1.63648437 1.18851563 1.44921875 1.80078125 C-0.48261153 8.17086777 -2.27652526 14.57058358 -4 21 C-5.14453125 19.51171875 -5.14453125 19.51171875 -6 17 C-5.35942852 14.13916718 -4.63898206 11.56421548 -3.6875 8.8125 C-3.44837891 8.07580078 -3.20925781 7.33910156 -2.96289062 6.58007812 C-1.1791402 1.1791402 -1.1791402 1.1791402 0 0 Z " fill="#D7F0FD" transform="translate(86,187)"/>
<path d="M0 0 C0.33 0.66 0.66 1.32 1 2 C0.5875 2.680625 0.175 3.36125 -0.25 4.0625 C-2.51035956 7.85667498 -3.70846262 11.79563364 -5 16 C-5.99 16 -6.98 16 -8 16 C-6.42986223 10.03347646 -3.24970218 5.17090975 0 0 Z " fill="#2C75DB" transform="translate(102,160)"/>
<path d="M0 0 C0.89721507 2.46046096 1.17742086 3.57791658 0.14453125 6.03515625 C-4.30828561 12.8123174 -4.30828561 12.8123174 -8 15 C-8 13.35 -8 11.7 -8 10 C-6.68 9.67 -5.36 9.34 -4 9 C-4 8.34 -4 7.68 -4 7 C-3.34 7 -2.68 7 -2 7 C-1.34 4.69 -0.68 2.38 0 0 Z " fill="#86AEE5" transform="translate(379,261)"/>
<path d="M0 0 C0.33 0 0.66 0 1 0 C1.06058594 1.15757812 1.12117188 2.31515625 1.18359375 3.5078125 C1.26805502 5.04688457 1.35270018 6.58594655 1.4375 8.125 C1.47681641 8.88554687 1.51613281 9.64609375 1.55664062 10.4296875 C1.79509002 14.68509203 2.20230237 18.80370826 3 23 C2.01 23 1.02 23 0 23 C0 15.41 0 7.82 0 0 Z " fill="#C7E6FB" transform="translate(387,242)"/>
<path d="M0 0 C-0.99 0.495 -0.99 0.495 -2 1 C-1.67 1.99 -1.34 2.98 -1 4 C-0.34 4.33 0.32 4.66 1 5 C1 5.66 1 6.32 1 7 C-2.59007126 5.66654496 -5.79570907 4.1056769 -9 2 C-9 1.67 -9 1.34 -9 1 C-3.375 -1.125 -3.375 -1.125 0 0 Z " fill="#2976E3" transform="translate(326,137)"/>
<path d="M0 0 C0.52078125 0.23589844 1.0415625 0.47179687 1.578125 0.71484375 C-0.071875 1.04484375 -1.721875 1.37484375 -3.421875 1.71484375 C-3.421875 2.37484375 -3.421875 3.03484375 -3.421875 3.71484375 C-5.0428853 4.41169873 -6.66883566 5.09707236 -8.296875 5.77734375 C-9.20179688 6.16019531 -10.10671875 6.54304687 -11.0390625 6.9375 C-13.421875 7.71484375 -13.421875 7.71484375 -15.421875 6.71484375 C-13.34614419 5.51199974 -11.26304405 4.32778674 -9.171875 3.15234375 C-8.29208984 2.63897461 -8.29208984 2.63897461 -7.39453125 2.11523438 C-2.96392641 -0.34897843 -2.96392641 -0.34897843 0 0 Z " fill="#B6CDEF" transform="translate(232.421875,191.28515625)"/>
<path d="M0 0 C1 2 1 2 0.3125 4.1875 C-1.29248081 7.6267446 -2.96286225 10.78996475 -5 14 C-5.99 14.33 -6.98 14.66 -8 15 C-6.62712658 11.30123909 -4.93644547 8.0485524 -2.875 4.6875 C-2.33617187 3.80449219 -1.79734375 2.92148438 -1.2421875 2.01171875 C-0.83226562 1.34785156 -0.42234375 0.68398437 0 0 Z " fill="#D3EEFD" transform="translate(146,182)"/>
<path d="M0 0 C-5.445 3.96 -5.445 3.96 -11 8 C-11.66 7.34 -12.32 6.68 -13 6 C-12.01 5.67 -11.02 5.34 -10 5 C-10 4.34 -10 3.68 -10 3 C-3.375 -1.125 -3.375 -1.125 0 0 Z " fill="#DCF4FE" transform="translate(155,106)"/>
<path d="M0 0 C5.33333333 2.66666667 10.66666667 5.33333333 16 8 C14.20739868 7.94004678 12.41574205 7.8512759 10.625 7.75 C9.62726563 7.70359375 8.62953125 7.6571875 7.6015625 7.609375 C6.31378906 7.30773437 6.31378906 7.30773437 5 7 C3.8359375 5.015625 3.8359375 5.015625 3 3 C2.01 2.67 1.02 2.34 0 2 C0 1.34 0 0.68 0 0 Z " fill="#DCF3FE" transform="translate(232,364)"/>
<path d="M0 0 C3.19032498 2.94491537 5.09144787 4.76009006 6 9 C6.99 9.33 7.98 9.66 9 10 C9 10.66 9 11.32 9 12 C4.58848955 10.52949652 2.14860084 6.95377777 0 3 C0 2.01 0 1.02 0 0 Z " fill="#2E77D7" transform="translate(77,264)"/>
<path d="M0 0 C0.66 0 1.32 0 2 0 C3.80230168 3.82989106 4.19622241 6.78121808 4 11 C3.01 10.67 2.02 10.34 1 10 C0.67 6.7 0.34 3.4 0 0 Z " fill="#2173E4" transform="translate(383,215)"/>
<path d="M0 0 C5.21202675 2.52704327 8.3880132 6.61773359 12 11 C11.67 11.66 11.34 12.32 11 13 C9.99403703 12.0479279 8.99538437 11.08812654 8 10.125 C7.443125 9.59132812 6.88625 9.05765625 6.3125 8.5078125 C5 7 5 7 5 5 C4.01 5 3.02 5 2 5 C1.34 3.35 0.68 1.7 0 0 Z " fill="#B5CFEF" transform="translate(300,203)"/>
<path d="M0 0 C3.10530887 2.56098749 4.02031356 5.28626141 5.25 9.0625 C5.60578125 10.12597656 5.9615625 11.18945312 6.328125 12.28515625 C7 15 7 15 6 17 C3.57869669 14.57869669 3.47159496 13.19888623 2.875 9.875 C2.70742188 8.96492187 2.53984375 8.05484375 2.3671875 7.1171875 C2.18542969 6.06917969 2.18542969 6.06917969 2 5 C1.34 5 0.68 5 0 5 C0 3.35 0 1.7 0 0 Z " fill="#4181D8" transform="translate(424,191)"/>
<path d="M0 0 C4.62 2.31 9.24 4.62 14 7 C10.29847322 7.92538169 9.36541838 8.08174162 6 7 C6 6.01 6 5.02 6 4 C3.03 3.505 3.03 3.505 0 3 C0 2.01 0 1.02 0 0 Z " fill="#2D76DA" transform="translate(337,94)"/>
<path d="M0 0 C4.41309542 3.15221101 7.00793014 6.55463907 10 11 C9.01 11 8.02 11 7 11 C5.17578125 9.1015625 5.17578125 9.1015625 3.3125 6.625 C2.68988281 5.81289062 2.06726563 5.00078125 1.42578125 4.1640625 C0 2 0 2 0 0 Z " fill="#E6F7FE" transform="translate(310,203)"/>
<path d="M0 0 C0.33 0 0.66 0 1 0 C1.10826289 2.4178712 1.18739789 4.83087556 1.25 7.25 C1.28351563 7.93191406 1.31703125 8.61382812 1.3515625 9.31640625 C1.4215705 12.92181813 1.29151719 14.64068812 -1.015625 17.484375 C-1.99789063 18.23460937 -1.99789063 18.23460937 -3 19 C-2.5359375 17.081875 -2.5359375 17.081875 -2.0625 15.125 C-0.93885167 10.11241278 -0.40577419 5.11489044 0 0 Z " fill="#CFEAFC" transform="translate(294,330)"/>
<path d="M0 0 C-0.51949219 0.21914062 -1.03898438 0.43828125 -1.57421875 0.6640625 C-6.75940232 3.02183544 -9.65077505 5.39481569 -13 10 C-13.33 9.34 -13.66 8.68 -14 8 C-11.5975532 2.29418885 -6.31564177 -2.13760183 0 0 Z " fill="#B4CDED" transform="translate(251,237)"/>
<path d="M0 0 C0.66 0 1.32 0 2 0 C3.02028865 1.31787285 4.01971384 2.65210653 5 4 C5.66 4.33 6.32 4.66 7 5 C7 7.31 7 9.62 7 12 C0 3.55172414 0 3.55172414 0 0 Z " fill="#7EAAE7" transform="translate(319,212)"/>
<path d="M0 0 C0.33 0.99 0.66 1.98 1 3 C0.01 3.33 -0.98 3.66 -2 4 C-2.309375 4.639375 -2.61875 5.27875 -2.9375 5.9375 C-4.2342338 8.45468915 -5.4221737 8.96886948 -8 10 C-8.66 9.34 -9.32 8.68 -10 8 C-4.375 4.125 -4.375 4.125 -1 3 C-0.67 2.01 -0.34 1.02 0 0 Z " fill="#D3EBFC" transform="translate(284,359)"/>
<path d="M0 0 C0.66 0.33 1.32 0.66 2 1 C2 2.32 2 3.64 2 5 C1.278125 4.9175 0.55625 4.835 -0.1875 4.75 C-3.83548794 5.07426559 -5.34568298 6.57319587 -8 9 C-6.07485943 4.70545566 -3.90477983 2.60318655 0 0 Z " fill="#156DF0" transform="translate(235,304)"/>
<path d="M0 0 C0.33 0.99 0.66 1.98 1 3 C0.67 3.66 0.34 4.32 0 5 C-0.66 5 -1.32 5 -2 5 C-2.12375 5.598125 -2.2475 6.19625 -2.375 6.8125 C-3 9 -3 9 -5 12 C-5.66 12 -6.32 12 -7 12 C-5.44298069 7.32894208 -2.91552627 3.91294315 0 0 Z " fill="#E4F5FD" transform="translate(197,207)"/>
<path d="M0 0 C1.32 0.33 2.64 0.66 4 1 C0.7 3.31 -2.6 5.62 -6 8 C-6.33 7.34 -6.66 6.68 -7 6 C-6.34 6 -5.68 6 -5 6 C-5 4.68 -5 3.36 -5 2 C-3.35 2 -1.7 2 0 2 C0 1.34 0 0.68 0 0 Z " fill="#3078DB" transform="translate(177,147)"/>
<path d="M0 0 C-1 3 -1 3 -2.99609375 4.203125 C-3.80175781 4.54859375 -4.60742188 4.8940625 -5.4375 5.25 C-6.24058594 5.60578125 -7.04367188 5.9615625 -7.87109375 6.328125 C-10 7 -10 7 -12 6 C-10.37829621 4.99466333 -8.75252763 3.99588093 -7.125 3 C-5.76761719 2.1646875 -5.76761719 2.1646875 -4.3828125 1.3125 C-2 0 -2 0 0 0 Z " fill="#2D75D9" transform="translate(172,96)"/>
<path d="M0 0 C7.37313433 -0.28358209 7.37313433 -0.28358209 11 2 C11.66 2.33 12.32 2.66 13 3 C13 3.66 13 4.32 13 5 C11.20620902 4.55005243 9.41501072 4.08975857 7.625 3.625 C6.62726563 3.36976562 5.62953125 3.11453125 4.6015625 2.8515625 C2 2 2 2 0 0 Z " fill="#D1ECFD" transform="translate(312,83)"/>
<path d="M0 0 C1.35015859 4.05047576 0.62084998 6.7920168 0 11 C-0.99 10.67 -1.98 10.34 -3 10 C-2.25 2.25 -2.25 2.25 0 0 Z " fill="#2A79E3" transform="translate(126,225)"/>
<path d="M0 0 C0.66 0 1.32 0 2 0 C2.433125 1.2065625 2.433125 1.2065625 2.875 2.4375 C3.73262568 5.1326468 3.73262568 5.1326468 6 6 C6 7.65 6 9.3 6 11 C3.34730103 8.52414762 1.31989897 6.40973899 0 3 C0 2.01 0 1.02 0 0 Z " fill="#2A71D8" transform="translate(221,347)"/>
<path d="M0 0 C1.72357119 2.58535679 2.44735018 4.03811614 3.1875 6.9375 C3.36667969 7.60652344 3.54585938 8.27554688 3.73046875 8.96484375 C4.03268678 11.24680888 3.68756692 12.82026659 3 15 C3 14.34 3 13.68 3 13 C2.34 13 1.68 13 1 13 C0.67 8.71 0.34 4.42 0 0 Z " fill="#C0E1F9" transform="translate(382,217)"/>
<path d="M0 0 C0.33 0 0.66 0 1 0 C0.9129995 1.62600941 0.8048219 3.25089678 0.6875 4.875 C0.62949219 5.77992188 0.57148438 6.68484375 0.51171875 7.6171875 C0 10 0 10 -3 12 C-2.49202991 7.6822542 -1.80317221 3.96697886 0 0 Z " fill="#CFEAFB" transform="translate(133,206)"/>
<path d="M0 0 C1.46726798 3.81489674 0.43336419 6.29011622 -1 10 C-1.66 10 -2.32 10 -3 10 C-3.33 10.99 -3.66 11.98 -4 13 C-4.66 12.67 -5.32 12.34 -6 12 C-5.38125 11.13375 -4.7625 10.2675 -4.125 9.375 C-2.15345216 6.24371814 -1.01033009 3.53615531 0 0 Z " fill="#C7E6FA" transform="translate(436,261)"/>
<path d="M0 0 C0.66 0.33 1.32 0.66 2 1 C-0.31 3.64 -2.62 6.28 -5 9 C-5.33 8.01 -5.66 7.02 -6 6 C-5.01 5.67 -4.02 5.34 -3 5 C-3 3.68 -3 2.36 -3 1 C-2.01 0.67 -1.02 0.34 0 0 Z " fill="#2B75D7" transform="translate(155,168)"/>
<path d="M0 0 C0.99 0.33 1.98 0.66 3 1 C0.36 3.97 -2.28 6.94 -5 10 C-5.33 9.01 -5.66 8.02 -6 7 C-5.34 7 -4.68 7 -4 7 C-3.71125 6.401875 -3.4225 5.80375 -3.125 5.1875 C-2 3 -2 3 0 0 Z " fill="#DCF5FE" transform="translate(123,129)"/>
<path d="M0 0 C0.33 0.99 0.66 1.98 1 3 C-0.4375 5.1875 -0.4375 5.1875 -2 7 C-3.32 6.67 -4.64 6.34 -6 6 C-4.02 4.02 -2.04 2.04 0 0 Z " fill="#D3ECFC" transform="translate(119,270)"/>
<path d="M0 0 C0.66 0.33 1.32 0.66 2 1 C-0.475 5.455 -0.475 5.455 -3 10 C-3.33 10 -3.66 10 -4 10 C-4 8.35 -4 6.7 -4 5 C-3.34 5 -2.68 5 -2 5 C-2 3.68 -2 2.36 -2 1 C-1.34 0.67 -0.68 0.34 0 0 Z " fill="#2B75DC" transform="translate(141,187)"/>
<path d="M0 0 C0.66 0.33 1.32 0.66 2 1 C1.19185349 2.33597652 0.37836819 3.668725 -0.4375 5 C-0.88996094 5.7425 -1.34242188 6.485 -1.80859375 7.25 C-2.20175781 7.8275 -2.59492188 8.405 -3 9 C-3.33 9 -3.66 9 -4 9 C-3.67 6.36 -3.34 3.72 -3 1 C-2.01 0.67 -1.02 0.34 0 0 Z " fill="#2876DC" transform="translate(147,178)"/>
<path d="M0 0 C1.15224028 0.92961422 2.29659176 1.8690125 3.4375 2.8125 C4.07558594 3.33457031 4.71367187 3.85664063 5.37109375 4.39453125 C7 6 7 6 8 9 C7.34 9 6.68 9 6 9 C6 8.34 6 7.68 6 7 C5.38125 6.71125 4.7625 6.4225 4.125 6.125 C2 5 2 5 0 3 C0 2.01 0 1.02 0 0 Z " fill="#D5F0FD" transform="translate(352,166)"/>
<path d="M0 0 C0.66 0 1.32 0 2 0 C0.6302836 3.99500618 -1.25722422 6.80009492 -4 10 C-4.33 9.01 -4.66 8.02 -5 7 C-3.6875 4.8125 -3.6875 4.8125 -2 3 C-1.34 3 -0.68 3 0 3 C0 2.01 0 1.02 0 0 Z " fill="#D5EEFE" transform="translate(104,153)"/>
<path d="M0 0 C0.66 0.33 1.32 0.66 2 1 C-2.75 5.875 -2.75 5.875 -5 7 C-5 5.68 -5 4.36 -5 3 C-4.34 3 -3.68 3 -3 3 C-3 2.34 -3 1.68 -3 1 C-2.01 0.67 -1.02 0.34 0 0 Z " fill="#2571DB" transform="translate(283,358)"/>
<path d="M0 0 C2.31 0 4.62 0 7 0 C7 0.66 7 1.32 7 2 C8.65 2.33 10.3 2.66 12 3 C12 3.66 12 4.32 12 5 C10.56068883 4.54738642 9.12361001 4.08767021 7.6875 3.625 C6.88699219 3.36976563 6.08648437 3.11453125 5.26171875 2.8515625 C3 2 3 2 0 0 Z " fill="#CDEBFD" transform="translate(265,297)"/>
<path d="M0 0 C3.7952131 1.49097658 5.61042731 3.75700849 8 7 C7.67 7.66 7.34 8.32 7 9 C5.82737096 7.88121617 4.66204862 6.75476949 3.5 5.625 C2.8503125 4.99851563 2.200625 4.37203125 1.53125 3.7265625 C0 2 0 2 0 0 Z " fill="#3179D5" transform="translate(351,163)"/>
<path d="M0 0 C1.31611677 0.95336021 2.62778961 1.91285774 3.9375 2.875 C4.66839844 3.40867188 5.39929688 3.94234375 6.15234375 4.4921875 C8 6 8 6 9 8 C8.01 8 7.02 8 6 8 C6 7.34 6 6.68 6 6 C5.195625 5.7525 4.39125 5.505 3.5625 5.25 C2.716875 4.8375 1.87125 4.425 1 4 C0.33984375 1.921875 0.33984375 1.921875 0 0 Z " fill="#D8F2FE" transform="translate(336,151)"/>
<path d="M0 0 C6.625 0.75 6.625 0.75 10 3 C10 3.66 10 4.32 10 5 C6.08788267 3.84414715 3.1254959 2.64465038 0 0 Z " fill="#D1EDFD" transform="translate(332,91)"/>
<path d="M0 0 C3.9492568 0.55105909 7.34920174 1.38935371 11 3 C11 3.66 11 4.32 11 5 C9.53932801 4.54917531 8.08151968 4.08906463 6.625 3.625 C5.81289063 3.36976563 5.00078125 3.11453125 4.1640625 2.8515625 C2 2 2 2 0 0 Z " fill="#367BD7" transform="translate(301,131)"/>
<path d="M0 0 C5.07865169 1.26966292 5.07865169 1.26966292 7 4 C6.67 5.32 6.34 6.64 6 8 C4.02 5.36 2.04 2.72 0 0 Z " fill="#DAF3FD" transform="translate(386,129)"/>
<path d="M0 0 C3.53600465 1.91135386 5.78972846 3.62642766 8 7 C4.66272214 5.82744291 2.22562513 4.81131596 0 2 C0 1.34 0 0.68 0 0 Z " fill="#2A73D8" transform="translate(369,115)"/>
<path d="M0 0 C0.33 0 0.66 0 1 0 C1.25 2.25 1.25 2.25 1 5 C-1 7.3125 -1 7.3125 -3 9 C-3.66 8.67 -4.32 8.34 -5 8 C-4.19185349 6.66402348 -3.37836819 5.331275 -2.5625 4 C-2.11003906 3.2575 -1.65757812 2.515 -1.19140625 1.75 C-0.79824219 1.1725 -0.40507812 0.595 0 0 Z " fill="#CEEAFD" transform="translate(290,350)"/>
<path d="M0 0 C2.64 1.65 5.28 3.3 8 5 C7.67 5.66 7.34 6.32 7 7 C6.34 7 5.68 7 5 7 C4.67 6.34 4.34 5.68 4 5 C1.98330173 3.86649466 1.98330173 3.86649466 0 3 C0 2.01 0 1.02 0 0 Z " fill="#DCF4FD" transform="translate(81,273)"/>
<path d="M0 0 C1.32 0 2.64 0 4 0 C4.33 2.31 4.66 4.62 5 7 C3.29115995 5.37660195 1.62553283 3.70680947 0 2 C0 1.34 0 0.68 0 0 Z " fill="#2976DD" transform="translate(359,172)"/>
<path d="M0 0 C3.36591866 1.44253657 5.51047079 3.33264727 8 6 C6.35 5.67 4.7 5.34 3 5 C3 4.34 3 3.68 3 3 C2.01 2.67 1.02 2.34 0 2 C0 1.34 0 0.68 0 0 Z " fill="#3275D6" transform="translate(361,109)"/>
<path d="M0 0 C0.33 1.32 0.66 2.64 1 4 C-1.97 6.475 -1.97 6.475 -5 9 C-3.7508258 5.54074837 -2.32472205 2.85306797 0 0 Z " fill="#3177D5" transform="translate(108,151)"/>
<path d="M0 0 C0.33 1.32 0.66 2.64 1 4 C0.01 4 -0.98 4 -2 4 C-2.66 5.32 -3.32 6.64 -4 8 C-4.66 7.67 -5.32 7.34 -6 7 C-4.02 4.69 -2.04 2.38 0 0 Z " fill="#387ED7" transform="translate(124,131)"/>
<path d="M0 0 C0.66 0 1.32 0 2 0 C2 0.66 2 1.32 2 2 C2.99 2 3.98 2 5 2 C5.33 3.65 5.66 5.3 6 7 C3.95880212 5.38405168 1.95927063 3.7143618 0 2 C0 1.34 0 0.68 0 0 Z " fill="#CBE8FB" transform="translate(374,117)"/>
</svg>
